<?xml version="1.0" standalone="no"?><!DOCTYPE svg PUBLIC "-//W3C//DTD SVG 1.1//EN" "http://www.w3.org/Graphics/SVG/1.1/DTD/svg11.dtd"><svg t="1595841898301" class="icon" viewBox="0 0 1320 1024" version="1.1" xmlns="http://www.w3.org/2000/svg" p-id="2589" xmlns:xlink="http://www.w3.org/1999/xlink" width="257.8125" height="200"><defs><style type="text/css"></style></defs><path d="M1195.31016 146.985421c0-11.863873-1.973979-23.27075-5.57394-33.949635H246.472352c-70.985237 0-128.535619 57.577381-128.535619 128.596618V895.390382c0 0.349996 0.025 0.693993 0.029 1.048988a107.815842 107.815842 0 0 0 29.580682 4.135956h939.894904c29.739681 0 56.706391-12.026871 76.24218-31.446662s31.62966-46.230503 31.629661-75.801186l-0.003-646.342057z m-495.804674 248.458331h302.774747v38.827583H699.505486v-38.827583z m302.772747 309.140679H699.505486v-38.827583h302.774747l-0.002 38.827583z m0-90.105032H699.505486v-38.827583h302.774747l-0.002 38.827583z m37.023603-90.105032h-339.79635v-38.827583h339.79635v38.827583z m40.989559-180.208064h-380.785909v-38.829583h380.790909l-0.004 38.829583z" fill="#D6F4ED" p-id="2590"></path><path d="M1232.336762 119.394717a146.764423 146.764423 0 0 1 2.642972 27.590704v646.340057c0 81.052129-66.189289 146.985421-147.542415 146.985421h-939.889904c-7.520919 0-14.90984-0.564994-22.133762-1.654982 17.759809 49.729466 65.245299 85.333083 121.058699 85.333083h945.937839c70.993237 0 128.535619-57.574382 128.535619-128.598618V241.632404c0-57.070387-37.170601-105.433867-88.609048-122.237687z" fill="#D6F4ED" p-id="2591"></path><path d="M1234.979734 146.985421c0-9.430899-0.93399-18.6448-2.643972-27.589704v-0.003C1219.332902 51.496447 1159.325546 0 1087.438319 0h-939.889904C66.189289 0 0 65.939292 0 146.985421v646.338057c0 73.55521 54.521414 134.656553 125.413653 145.330439a149.128398 149.128398 0 0 0 22.132762 1.654982h939.894904c81.354126 0 147.542415-65.926292 147.542415-146.985421l-0.004-646.338057z m-39.667574 646.336057c0 29.568682-12.09687 56.380394-31.62966 75.803186-19.53279 19.419791-46.4995 31.446662-76.243181 31.446662H147.546415a107.815842 107.815842 0 0 1-29.580682-4.136956C72.822218 883.616508 39.669574 842.261952 39.669574 793.319478V146.985421c0-59.137365 48.39348-107.252848 107.876841-107.252848h939.894904c47.548489 0 87.985055 30.75967 102.298901 73.301213a106.039861 106.039861 0 0 1 5.57394 33.949635l-0.002 646.338057z" fill="#01C1B2" p-id="2592"></path><path d="M699.505486 305.33672h380.790909v38.829583H699.505486z m0 90.107032h302.776747v38.827583h-302.776747z m0 90.103032h339.79635v38.827583h-339.79635z m0 90.105032h302.776747v38.827583h-302.776747z m0 90.105032h302.776747v38.827583h-302.776747z" fill="#01C1B2" p-id="2593"></path><path d="M401.131691 616.621376c-32.247654 0-58.319374 25.619725-58.319374 57.134386 0 31.522661 26.165719 57.134386 58.319374 57.134387 32.244654 0 58.315374-25.613725 58.315374-57.134387 0-31.513661-26.164719-57.134386-58.315374-57.134386z m127.074635-361.970112c-31.063666-27.427705-72.754218-41.145558-125.258655-41.145558-49.868464 0-90.193031 13.532855-120.899701 40.605564-30.70367 27.063709-48.601478 64.394308-49.596467 98.824939-0.994989 34.42463 80.839132 27.248707 83.840099 10.262889 3.176966-17.985807 16.617821-47.052495 32.247654-60.219353 15.619832-13.174858 35.063623-19.803787 58.316373-19.803787 24.069741 0 43.329535 6.362932 57.496383 18.986796 14.167848 12.717863 21.342771 27.8837 21.342771 45.58951 0 12.724863-4.085956 24.442737-12.079871 35.067624-5.176944 6.719928-21.165773 20.891776-47.780486 42.599542-26.613714 21.621768-44.416523 41.144558-53.317428 58.497372-8.902904 17.348814-13.352857 39.423577-13.352856 66.303287 0 2.631972 0.181998 9.903894 0.364996 21.804766h83.014108c-0.449995-25.16373 1.732981-42.608542 6.360932-52.321438 4.63695-9.809895 16.623821-22.708756 35.880614-38.692584 37.2406-30.975667 61.499339-55.409405 72.937217-73.393212 11.355878-17.985807 17.073817-37.062602 16.989817-57.231385 0.002-36.416609-15.443834-68.306266-46.5055-95.734972z m0 0" fill="#01C1B2" p-id="2594"></path></svg>